<?xml version="1.0" ?>
<svg
   xmlns:dc="http://purl.org/dc/elements/1.1/"
   xmlns:cc="http://creativecommons.org/ns#"
   xmlns:rdf="http://www.w3.org/1999/02/22-rdf-syntax-ns#"
   xmlns:svg="http://www.w3.org/2000/svg"
   xmlns="http://www.w3.org/2000/svg"
   viewBox="0 0 564.66669 564.70667"
   height="564.70667"
   width="564.66669"
   xml:space="preserve"
   id="svg2"
   version="1.1">
   <!-- <metadata
     id="metadata8"><rdf:RDF><cc:Work
         rdf:about=""><dc:format>image/svg+xml</dc:format><dc:type
           rdf:resource="http://purl.org/dc/dcmitype/StillImage" /></cc:Work></rdf:RDF></metadata> -->
           <defs
     id="defs6" /><g
     transform="matrix(1.3333333,0,0,-1.3333333,0,564.70667)"
     id="g10"><g
       transform="scale(0.1)"
       id="g12"><path
         id="path14"
         style="fill:#100f0d;fill-opacity:1;fill-rule:nonzero;stroke:none"
         d="m 1696.25,2008.31 c -63,235.14 76.61,476.98 311.82,539.98 235.17,63.02 476.98,-76.57 540.01,-311.78 63.02,-235.2 -76.62,-476.96 -311.83,-540.01 -235.16,-62.98 -476.94,76.6 -540,311.81 z m 2375.15,550.4 c 0.52,-14.34 -4.23,-29.22 -5.72,-43.9 -4.27,-14.69 -6.95,-29.75 -12.06,-44.69 -19.83,-59.85 -53.46,-118.96 -92.59,-175.79 -79.94,-113.42 -185.52,-214.01 -296.63,-305.4 -74.11,-59.59 -152.45,-113.59 -232.6,-164.08 -13.92,21.46 -27.79,42.95 -42.11,63.97 -79.17,122.14 -164.83,237.3 -250.59,349.16 -35.88,45.92 -72.22,90.8 -108.89,134.98 9.3,52.39 18.16,105.09 26.15,158.41 21.53,139.24 37.29,281.92 45.17,427.15 2.03,25.6 3.36,51.39 4.74,77.14 95.12,-3.37 190.44,-10.67 284.88,-25.53 141.98,-23.66 283.82,-58.1 409.69,-116.66 62.31,-29.82 120.99,-64.22 168.02,-106.3 11.86,-10.42 21.71,-22.1 32.76,-32.72 8.61,-11.97 20.14,-22.49 26.89,-35.21 l 11.71,-18.19 9.02,-19.15 c 3.41,-6.21 6.08,-12.71 7.77,-19.48 l 3.24,-9.93 1.68,-4.92 0.84,-2.47 c -0.18,0.89 0.46,-1.43 0.53,-1.62 l 4.81,-23.11 2.79,-13.59 0.23,-8.85 c 0.22,-5.87 0.76,-11.59 1.36,-17.59 z M 3510.88,1502.28 c -122.04,-68.88 -187.3,-213.5 -149.35,-355.14 34.43,-128.4 143.55,-216.601 268.05,-230.941 -1.8,-20.679 -4.29,-41.097 -8.39,-60.699 -3.07,-15.48 -8.27,-29.859 -11.95,-44.738 -6.07,-13.442 -9.4,-28.692 -17.06,-40.871 l -9.87,-19.262 -12.09,-17.359 c -3.67,-6.071 -7.97,-11.622 -12.97,-16.469 l -6.97,-7.77 -3.46,-3.922 -1.71,-1.961 c 0.68,0.543 -1.04,-1.117 -1.28,-1.429 l -17.42,-15.559 -10.43,-9.238 -7.51,-4.613 c -4.97,-3.129 -9.69,-6.457 -14.57,-9.969 l -19.26,-9.848 c -12.19,-7.652 -27.42,-10.972 -40.89,-17.031 -14.86,-3.652 -29.23,-8.84 -44.71,-11.859 -61.77,-12.793 -129.78,-13.192 -198.58,-7.743 -138.15,12.539 -278.08,53.692 -412.77,104.192 -87.57,33.969 -172.45,74.219 -255.27,117.769 11.34,22.84 22.58,45.981 33.77,69.5 24.54,48.289 48.09,98.4 71.57,149.8 46.71,102.9 90.83,211.91 132.15,326.21 9.4,25.08 18.66,50.46 27.85,76 51.79,18.71 103.67,38.07 155.67,58.51 131.32,51.02 262.77,108.68 392.51,174.48 23.17,11.03 46.14,22.8 69.17,34.47 38.71,-72.96 74.47,-147.72 105.77,-224.51 z M 2479.91,860.129 c -30,16.383 -59.76,33.16 -89.16,50.269 -122.15,74.301 -239.48,153.952 -349.41,239.622 -32.68,25.16 -64.7,50.78 -96.36,76.53 73.91,14.2 148.76,29.94 224.74,47.98 186.49,43.84 378.11,99.92 571.74,168.1 -44.42,-130.67 -93.09,-254.71 -148.9,-368.81 -35.07,-75.5 -72.87,-146.808 -112.65,-213.691 z M 2265.12,561.879 C 2145.85,426.582 2026.95,324.781 1922.55,263.809 1818.36,201.422 1733.66,181.48 1681.77,180.84 c -6.56,-0.18 -12.72,-0.36 -18.51,-0.488 -5.62,0.628 -10.85,1.218 -15.71,1.757 -4.83,0.461 -9.31,0.84 -13.37,1.211 -3.92,0.961 -7.46,1.801 -10.61,2.578 -8.99,2.024 -14.78,3.364 -17.44,3.911 -4.12,1.441 -11.46,3.91 -22.03,7.433 -4.16,1.449 -8.84,3.047 -14.03,4.86 -2.84,1.578 -5.99,3.328 -9.39,5.25 -3.43,1.808 -7.21,3.617 -11.36,5.429 -4.77,3.141 -9.87,6.469 -15.28,9.989 -43.47,27.511 -103.83,88.339 -158.85,194.57 -55.51,105.34 -102.51,252.16 -134.63,427.558 -15.8,89.172 -26.46,185.962 -31.04,288.592 25.52,1.58 51.31,3.45 77.35,5.48 54.08,2.9 109.24,7.6 165.5,12.96 112.44,10.97 228.96,27.32 348.58,48.66 26.39,4.41 53.02,9.07 79.74,13.9 42.12,-35.51 84.83,-70.78 128.55,-105.6 109.81,-88.25 225.49,-173.242 347.33,-252.66 28.13,-19.41 56.79,-38.261 85.77,-56.82 -56.49,-88.32 -116.16,-167.941 -177.22,-237.531 z M 1214.31,1447.59 c 7.48,121.23 23.45,247.59 45.82,377.56 48.5,-56.03 98.78,-112.06 151.5,-167.9 131.2,-139.55 275.59,-277.45 431.48,-411.04 -135.36,-26.86 -267.16,-46.71 -393.88,-55.47 -82.86,-7.37 -163.5,-10.28 -241.21,-9.27 -2.2,85.3 -0.46,174.12 6.29,266.12 z m -77.63,-263.96 c -86.71,3.92 -169.168,12.93 -246.567,26.14 10.981,147.75 -83.898,287.21 -232.258,326.95 -127.246,34.12 -257.109,-15.06 -332.125,-113.91 -53.148,40.59 -87.14,79.76 -105.242,110.2 -3.433,5.6 -6.664,10.87 -9.66,15.82 -2.269,5.16 -4.375,10 -6.32,14.49 -2.051,4.4 -3.926,8.47 -5.621,12.17 -1.16,3.83 -2.188,7.37 -3.106,10.47 -2.715,8.76 -4.437,14.35 -5.254,16.98 -0.855,4.18 -2.359,11.58 -4.632,22.88 -0.836,4.35 -1.778,9.2 -2.825,14.55 -0.043,3.3 -0.086,6.88 -0.144,10.79 -0.168,3.86 -0.481,8.04 -0.988,12.56 0.312,5.67 0.664,11.75 1.035,18.21 2.062,51.43 24.593,134.1 89.078,234.85 63.472,100.77 167.105,214.84 302.969,330.38 69.296,58.28 147.753,115.89 234.375,171.19 14.128,-21.34 28.648,-42.72 43.437,-64.26 29.555,-45.41 61.199,-90.84 93.961,-136.86 65.747,-91.9 138.107,-184.63 216.437,-277.54 15.65,-19.05 31.69,-38.11 47.77,-57.2 -25,-148.73 -43.07,-292.71 -56.37,-430.08 -8.05,-92.67 -14.06,-182.26 -17.95,-268.78 z M 699.203,2778.88 c -57.527,170.97 -86.238,324.8 -86.875,445.71 -1.89,121.43 23.16,204.74 48.531,250.02 3.125,5.77 6.09,11.18 8.86,16.27 3.363,4.55 6.496,8.79 9.379,12.71 2.793,3.98 5.379,7.63 7.738,10.96 2.777,2.94 5.293,5.56 7.539,7.94 6.293,6.8 10.32,11.15 12.145,13.11 3.222,2.86 8.851,7.83 17.425,15.36 3.328,2.9 7.075,6.15 11.196,9.73 2.808,1.67 5.906,3.51 9.269,5.51 3.262,2.09 6.719,4.44 10.375,7.13 5.086,2.58 10.52,5.31 16.285,8.22 45.578,23.93 128.426,45.77 247.92,40.29 119.02,-4.6 269.62,-37.3 437.6,-97.18 86.1,-31.24 176.29,-70.98 268.59,-119.06 -11.67,-22.85 -23.4,-45.69 -34.47,-68.68 -66.19,-129.59 -123.1,-261.38 -177.07,-391.6 -21.04,-52.04 -41,-103.98 -60.28,-155.85 -139.3,-52.1 -271.24,-107.71 -395.2,-164.13 -84.269,-39.38 -164.875,-78.97 -241.75,-118.88 -48.297,93.12 -87.441,184.7 -117.207,272.42 z M 1787.13,3372.3 c 67.55,-37.62 135.97,-79.65 204.53,-126.23 99.51,-65.96 199.24,-141.47 298.84,-224.11 -56.84,-10.46 -113.21,-21.56 -168.71,-33.77 -66.46,-14.75 -132,-30.19 -195.58,-46.59 -64.45,-17.06 -127.03,-35.48 -188.77,-54.78 -72.31,-22.4 -142.67,-46.23 -211.5,-70.86 13.36,35.87 27.14,71.74 41.65,107.55 51.26,129.52 112.75,257.32 180.76,383.08 12.61,22.01 25.72,43.86 38.78,65.71 z m 177.73,262.84 c 120.67,-71.25 278.54,-55.41 382.2,48.27 93.99,93.99 115.84,232.59 66.03,347.58 18.81,8.79 37.73,16.85 56.73,23.1 14.94,5.07 30,7.76 44.71,12.01 14.71,1.49 29.58,6.2 43.95,5.66 l 21.63,1.08 21.07,-1.8 c 7.09,-0.14 14.04,-1.07 20.76,-2.98 l 10.19,-2.16 5.12,-1.01 2.56,-0.51 c -0.84,0.3 1.39,-0.3 1.68,-0.34 l 22.39,-7.39 13.19,-4.38 7.74,-4.23 c 5.22,-2.74 10.45,-5.13 15.96,-7.63 l 18.16,-11.75 c 12.7,-6.71 23.18,-18.27 35.16,-26.91 10.61,-11.05 22.3,-20.88 32.67,-32.77 41.95,-47.1 76.28,-105.79 105.97,-168.08 58.21,-125.95 92.55,-267.69 116.16,-409.59 14.54,-93.99 22.18,-188.83 25.78,-283.48 -25.52,-1.33 -51.08,-2.59 -76.44,-4.5 -145.34,-7.49 -287.9,-24.09 -427.69,-42.44 -55.57,-7.8 -110.56,-16.52 -165.13,-25.73 -114.75,94.56 -228.88,181.02 -339.73,260.18 -68.72,48.03 -136.11,93.51 -202.22,136.18 43.78,69.94 90.6,138.2 141.4,203.62 z m 915.38,-1895.47 c 53.32,176.85 99.02,363.64 136.11,557.72 25.92,-31.25 51.62,-62.89 76.85,-95.24 86.56,-109.16 166.46,-226.32 241.38,-348.05 12.72,-21.87 25,-44.02 37.37,-66.14 -21.92,-13.14 -43.78,-26.32 -65.88,-38.95 -125.38,-68.63 -253.06,-130.42 -382.19,-182.78 -38.12,-15.73 -76.28,-30.65 -114.43,-45.2 24.65,71.12 48.46,143.84 70.79,218.64 z M 1267.8,2171.43 c -18.44,-81.32 -34.27,-161.54 -48.31,-240.56 -89.25,102.18 -170.84,204.77 -240.658,308.49 -47.812,68.07 -90.641,136.46 -128.629,204.28 72.742,44.52 150.557,87.44 233.597,127.58 106.91,53.23 222.11,101.81 343.53,146.8 -19.39,-54.48 -37.96,-108.86 -55.14,-163.05 -20.46,-64.91 -39.86,-129.39 -57.44,-192.65 -17.45,-64.34 -32.78,-127.78 -46.95,-190.89 z m 60.91,-14.24 c 46.95,190.2 101.23,388.35 171.3,587.12 82.7,29.07 167.96,56.57 255.53,82.64 188.22,54.43 386.95,106.53 594.1,145.23 66.5,-57.1 132.98,-117.2 199.32,-180 142.31,-136.81 287.85,-284.03 425.87,-445.5 -12.65,-71.76 -26.66,-142.6 -41.93,-212.3 -14.63,-65.51 -29.93,-130.13 -46.39,-193.65 -16.14,-63.21 -31.99,-127.07 -49.5,-188.15 -23.98,-85.13 -48.95,-168.36 -75.3,-249.37 -74.81,-27.62 -149.55,-53.32 -223.82,-76.93 -64.06,-20.07 -127.69,-39.14 -190.95,-56.65 -62.77,-17.62 -126.02,-35.81 -187.67,-51.2 -85.72,-21.81 -170.25,-41.81 -253.55,-59.49 -61.34,51.01 -120.98,102.86 -178.57,155.39 -49.42,45.45 -97.74,90.97 -144.54,137.02 -46.65,45.55 -94.04,91.24 -138.18,136.94 -60.77,62.32 -119.41,124.55 -175.57,186.88 16.96,92.35 37.04,186.46 59.85,282.02 z m 1708.79,803.83 c -3.25,-142.93 -13.58,-284.38 -32.77,-422.4 -5.16,-38.62 -10.9,-76.93 -17,-115.05 -38.26,45.02 -76.87,89.23 -116.02,132.07 -45.97,50.16 -92.12,99.19 -138.1,146.06 -47.02,47.29 -94.25,92.28 -141.84,136.1 -55.55,51.4 -111.36,100.45 -167.14,147.75 37.77,6.35 75.72,12.36 114,17.69 137.82,20.38 279.25,31 422.14,35.01 25.25,0.08 50.61,-0.34 75.94,-0.74 0.42,-25.52 0.9,-51.06 0.79,-76.49 z m 1195.2,-341.73 -1.66,19.14 -2.6,13.9 -5.22,27.54 c -2.86,11.76 -1.58,5.64 -2.57,9.36 l -1.43,4.17 -2.81,8.33 -5.76,16.63 c -3.54,11.22 -8.11,21.94 -13.61,32.22 l -15.74,31.14 -18.92,28.71 c -12,19.85 -28.02,35.36 -42.16,52.92 -15.55,15.51 -31.44,31.13 -48.3,44.54 -67.34,54.31 -141.61,91.57 -216.88,118.03 -75.21,26.83 -151.21,44.98 -226.96,58.26 -75.91,12.19 -151.55,19.37 -226.61,23.68 -75.14,3 -149.52,5.66 -223.46,4.89 -22.97,-0.28 -45.76,-1.17 -68.6,-1.86 2.9,95.91 2.15,192.79 -2.54,290.74 -4.25,75.05 -11.31,150.66 -23.42,226.6 -13.16,75.74 -31.32,151.71 -58.09,226.92 -26.47,75.27 -63.58,149.55 -117.88,216.89 -13.39,16.84 -28.99,32.75 -44.46,48.32 -17.57,14.13 -33.02,30.16 -52.85,42.19 l -28.72,18.92 c -11.18,5.93 -22.78,11.64 -34.32,17.17 l -17.42,8.14 -13.33,4.7 -26.45,9.25 c -11.62,3.4 -5.7,1.44 -9.41,2.43 l -4.3,0.87 -8.65,1.72 -17.27,3.31 c -11.48,2.58 -23.05,3.97 -34.68,4.35 l -34.86,1.92 -34.35,-2.01 c -23.18,-0.48 -44.62,-6.59 -66.9,-10.06 -21.2,-5.71 -42.68,-11.65 -62.7,-19.55 -35.5,-13.72 -68.72,-30.36 -100.04,-49 -123.42,95.56 -301.44,86.98 -414.71,-26.29 -119.01,-119.02 -122.41,-309.46 -10.89,-432.97 -34.13,-54.28 -67.7,-108.4 -98.74,-163.48 -11.18,-19.94 -21.77,-40.04 -32.53,-60.09 -89.37,55.83 -176.28,106.19 -260.52,149.93 -165.46,86.16 -323.42,141.67 -464.53,163.15 -70.346,11.88 -136.991,10.45 -195.78,2.92 -58.879,-7.12 -109.816,-23.98 -148.992,-43.77 -9.867,-4.93 -19.019,-9.32 -27.789,-14.09 -9.141,-5.98 -17.664,-11.57 -25.559,-16.74 -7.765,-5.4 -14.914,-10.37 -21.417,-14.9 -4.415,-3.71 -8.379,-7.06 -11.911,-10.06 -13.75,-11.76 -20.859,-17.84 -20.859,-17.84 l -4.344,-4.07 c 0,0 -7.894,-9.04 -23.215,-26.56 -3.73,-4.45 -7.921,-9.43 -12.543,-14.96 -3.996,-5.93 -8.375,-12.44 -13.121,-19.5 -4.64,-7.13 -9.672,-14.81 -15.047,-23.06 -4.664,-8.53 -9.171,-17.82 -14.097,-27.65 -40.961,-78.23 -63.531,-204.05 -42.321,-345.08 20.766,-141.44 75.465,-300.01 161.309,-465.95 43.563,-82.66 90.856,-169.19 146.195,-256.8 1.09,-1.76 2.309,-3.54 3.407,-5.31 -91.703,-48.86 -177.493,-98.31 -256.5,-148.75 C 354.922,2232.56 227.859,2123.52 138.699,2012.03 93.2266,1957.07 61.1719,1898.67 38.2852,1843.99 14.9961,1789.43 4.14844,1736.89 1.6875,1693.06 1.04297,1682.05 0.25,1671.93 0,1661.97 c 0.609375,-10.94 1.19531,-21.09 1.72266,-30.54 0.78906,-9.4 1.52343,-18.1 2.1875,-25.97 1.0039,-5.68 1.92578,-10.79 2.7539,-15.34 3.30078,-17.83 5.02734,-27 5.02734,-27 l 1.375,-5.79 c 0,0 3.8633,-11.38 11.3789,-33.42 1.9766,-5.45 4.2031,-11.55 6.6641,-18.32 3.1484,-6.41 6.5898,-13.44 10.3633,-21.1 3.8281,-7.6 7.9648,-15.79 12.4296,-24.57 5.0547,-8.28 10.8555,-16.84 16.8868,-26.05 36.5159,-57.6 103.3559,-119.77 192.9409,-169.17 -15.589,-151 79.868,-295.36 231.243,-335.891 160.562,-43.059 325.121,46.429 378.511,201.231 81.2,-2.68 165.996,-3.95 254.666,-0.45 2.1,0.09 4.22,0.23 6.3,0.32 -3.53,-103.89 -3.57,-202.871 0.59,-296.519 8.11,-186.379 39.03,-350.93 90.98,-483.891 24.87,-66.852 59.43,-123.84 95.34,-170.988 35.6,-47.473 75.68,-83.1136 112.43,-107.1409 9.21,-6.1094 17.56,-11.8008 26.06,-17.0313 9.78,-4.9179 18.88,-9.4882 27.29,-13.7578 8.58,-4.0312 16.44,-7.7422 23.62,-11.1328 5.43,-1.9375 10.3,-3.6875 14.67,-5.2695 17.07,-6.0274 25.87,-9.1211 25.87,-9.1211 l 3.88,-1.3867 36.44,-7.21096 c 5.7,-0.98047 12.14,-2.08985 19.22,-3.35938 7.11,-0.48047 14.97,-1.01172 23.45,-1.60937 8.48,-0.45313 17.68,-0.953127 27.48,-1.49219 9.72,0.230469 20.04,0.949219 31,1.64063 88.24,3.64062 208.51,46.96097 320.04,135.87937 112.08,88.699 222.07,215.351 322.86,372.652 49.76,79.058 101.05,163.277 149.3,255 1.04,1.93 2,4 3.04,5.937 80.55,-49.718 163.69,-96.769 249.61,-141.097 67.13,-33.832 136.15,-65.532 207.95,-93 72.22,-26.453 147.05,-48.75 225.61,-63.133 78.37,-14.738 161.29,-19.707 246.72,-6.379 21.29,3.191 42.88,8.73 64.09,14.34 21.04,8.14 42.64,13.539 62.98,24.691 l 30.75,15.418 c 10.7,6.699 21.47,13.903 32.03,21.121 l 15.72,11.02 10.74,9.18 21.23,18.269 c 8.79,8.43 4.14,4.25 6.85,6.953 l 2.9,3.297 5.8,6.609 11.51,13.313 c 7.96,8.699 14.98,17.988 21.1,27.91 l 19.09,29.199 15.42,30.75 c 11.19,20.309 16.61,41.942 24.75,62.95 5.64,21.242 11.25,42.789 14.43,64.082 5.88,37.597 7.71,74.589 7.26,111.027 144.63,59 226.39,217.571 184.9,372.381 -43.58,162.61 -206.77,260.76 -369.52,225.94 -29.91,56.68 -60.02,112.83 -92.21,167.25 -11.73,19.75 -23.9,39.03 -35.91,58.46 84.54,45.43 168.02,94.53 250.52,147.57 62.87,41.21 124.83,85.12 184.54,133.59 59.02,49.26 115.71,102.97 167.47,163.77 51.97,60.53 97.73,129.84 128.91,210.52 7.87,20.04 13.86,41.47 19.6,62.67 3.47,22.28 9.6,43.69 10.1,66.86 l 2.04,34.34 c -0.45,12.63 -1.3,25.55 -2.29,38.31" /></g></g></svg>